<?xml version="1.0" encoding="UTF-8" standalone="no"?>
<!-- Generator: Adobe Illustrator 17.0.0, SVG Export Plug-In . SVG Version: 6.00 Build 0)  -->

<svg
   xmlns:dc="http://purl.org/dc/elements/1.1/"
   xmlns:cc="http://creativecommons.org/ns#"
   xmlns:rdf="http://www.w3.org/1999/02/22-rdf-syntax-ns#"
   xmlns:svg="http://www.w3.org/2000/svg"
   xmlns="http://www.w3.org/2000/svg"
   xmlns:sodipodi="http://sodipodi.sourceforge.net/DTD/sodipodi-0.dtd"
   xmlns:inkscape="http://www.inkscape.org/namespaces/inkscape"
   version="1.1"
   id="Warstwa_1"
   x="0px"
   y="0px"
   width="707.1px"
   height="200px"
   viewBox="0 0 707.1 200"
   enable-background="new 0 0 707.1 200"
   xml:space="preserve"
   sodipodi:docname="logo.svg"
   inkscape:version="0.92.4 (5da689c313, 2019-01-14)"><metadata
   id="metadata37"><rdf:RDF><cc:Work
       rdf:about=""><dc:format>image/svg+xml</dc:format><dc:type
         rdf:resource="http://purl.org/dc/dcmitype/StillImage" /></cc:Work></rdf:RDF></metadata><defs
   id="defs35" /><sodipodi:namedview
   pagecolor="#ffffff"
   bordercolor="#666666"
   borderopacity="1"
   objecttolerance="10"
   gridtolerance="10"
   guidetolerance="10"
   inkscape:pageopacity="0"
   inkscape:pageshadow="2"
   inkscape:window-width="1366"
   inkscape:window-height="705"
   id="namedview33"
   showgrid="false"
   showguides="false"
   inkscape:zoom="0.49356528"
   inkscape:cx="318.09369"
   inkscape:cy="100"
   inkscape:window-x="-8"
   inkscape:window-y="-8"
   inkscape:window-maximized="1"
   inkscape:current-layer="g30" />








<g
   id="g30">
	
	
	
	
	
	
<path
   style="fill:#0b1728;stroke:none;stroke-width:0.7713955px;stroke-linecap:butt;stroke-linejoin:miter;stroke-opacity:1"
   d="m -48.111812,126.93514 c 2.400403,-0.24655 4.850143,-0.86313 6.933802,-2.08014 2.399552,-1.40152 4.525255,-3.42877 6.009292,-5.77816 1.301086,-2.05979 1.873027,-4.53726 2.311267,-6.93381 0.346736,-1.89615 0.365829,-3.85528 0.231128,-5.77816 -0.120385,-1.71851 -0.317419,-3.47259 -0.924508,-5.08478 -0.791546,-2.102064 -2.065434,-4.022879 -3.4669,-5.778184 -3.127868,-3.917567 -7.002888,-7.202131 -10.862954,-10.400701 -2.551556,-2.114292 -5.055499,-4.445529 -8.089434,-5.778165 -1.369591,-0.601582 -2.991355,-1.451329 -4.391407,-0.924509 -1.802658,0.678324 -2.440228,2.992926 -3.4669,4.622533 -1.065367,1.691035 -2.13909,3.420629 -2.773521,5.315917 -0.743785,2.221964 -1.000042,4.59582 -1.155632,6.933801 -0.15867,2.384268 -0.0267,4.789328 0.231126,7.164928 0.363536,3.35 0.796395,6.73741 1.849013,9.93845 0.882622,2.68407 2.095013,5.30046 3.698028,7.62719 1.020409,1.48108 2.265238,2.84197 3.698026,3.92915 1.454962,1.10401 3.100739,2.02953 4.853661,2.54239 1.707096,0.49945 3.546564,0.644 5.315913,0.46225 z"
   id="path4544"
   inkscape:connector-curvature="0"
   sodipodi:nodetypes="aaaaaaaaaaaaaaaaaaa" /><path
   style="fill:#0b1728;stroke:none;stroke-width:0.7713955px;stroke-linecap:butt;stroke-linejoin:miter;stroke-opacity:1"
   d="m -22.225624,78.167406 c 2.076814,0.140573 4.204049,0.200276 6.240421,-0.231125 2.029386,-0.42993 4.071568,-1.131966 5.778166,-2.311266 2.0635549,-1.425971 3.5968919,-3.527685 5.0847919,-5.547043 1.269778,-1.723336 2.476213,-3.545718 3.235765,-5.54704 0.696967,-1.836387 0.873719,-3.834303 1.15563496,-5.778168 0.488562,-3.368593 0.844167,-6.766688 0.924507,-10.169574 0.08373,-3.546301 -0.298793,-7.088306 -0.462253,-10.631825 -0.145728,-3.15913 -0.06628,-6.338591 -0.462254,-9.476201 -0.38401596,-3.043069 -0.65666696,-6.187966 -1.84901596,-9.013932 -1.013412,-2.401906 -2.173798,-5.101005 -4.391402,-6.47155 -0.991739,-0.612927 -2.302038,-0.51051 -3.4668989,-0.46226 -2.521485,0.104464 -5.024891,0.753959 -7.396055,1.617893 -3.270264,1.191528 -6.493297,2.722431 -9.245067,4.853658 -2.630452,2.037269 -4.91981,4.586939 -6.702674,7.396058 -2.146754,3.382457 -3.445219,7.264782 -4.622534,11.094076 -1.016815,3.307263 -1.731678,6.727126 -2.08014,10.169574 -0.318116,3.142671 -0.494248,6.356371 0,9.476192 0.50702,3.200445 1.613909,6.318337 3.004647,9.245074 1.219861,2.567125 2.648088,5.120476 4.622534,7.164926 1.499515,1.55268 3.319441,2.877377 5.315914,3.698024 1.663515,0.68379 3.521452,0.803046 5.315913,0.924509 z"
   id="path4546"
   inkscape:connector-curvature="0"
   sodipodi:nodetypes="aaaaaaaaaaaaaaaaaaaaaa" /><path
   style="fill:#0b1728;stroke:none;stroke-width:0.7713955px;stroke-linecap:butt;stroke-linejoin:miter;stroke-opacity:1"
   d="m 33.938161,78.167406 c 2.381419,0.197089 4.848451,0.355299 7.164922,-0.231125 2.004043,-0.50734 3.896649,-1.528624 5.547047,-2.773525 2.002509,-1.510493 3.763987,-3.414644 5.084791,-5.547042 1.695141,-2.73676 2.612961,-5.910043 3.466893,-9.013932 0.725712,-2.637812 1.186516,-5.360965 1.386773,-8.089442 0.242553,-3.304817 0.34742,-6.675628 -0.231139,-9.938442 -0.710366,-4.006182 -2.130635,-7.906752 -3.929145,-11.556333 -1.596272,-3.239181 -3.553005,-6.366879 -6.0093,-9.013941 -2.725514,-2.937195 -5.843429,-5.705323 -9.476192,-7.396059 -3.712463,-1.727826 -8.062123,-3.59794 -12.018589,-2.542392 -1.89782,0.50632 -3.220347,2.35223 -4.39141,3.92915 -1.520635,2.047672 -2.533386,4.481872 -3.235769,6.933808 -0.876309,3.059091 -0.927787,6.302223 -1.155636,9.476193 -0.502114,6.994531 -0.855961,14.031048 -0.462253,21.032524 0.1615,2.871938 0.339296,5.793482 1.155634,8.551692 0.870453,2.941102 2.201976,5.785868 3.92915,8.320558 1.012795,1.486306 2.27148,2.8338 3.698031,3.929149 1.804463,1.385527 3.868831,2.464937 6.009288,3.235776 1.108813,0.399317 2.292407,0.596177 3.466904,0.693383 z"
   id="path4548"
   inkscape:connector-curvature="0"
   sodipodi:nodetypes="aaaaaaaaaaaaaaaaaaaa" /><path
   style="fill:#0b1728;stroke:none;stroke-width:0.7713955px;stroke-linecap:butt;stroke-linejoin:miter;stroke-opacity:1"
   d="m 48.961399,106.13374 c 0.187891,-2.66776 0.408507,-5.473 1.617888,-7.858314 0.98664,-1.945972 2.906125,-3.25546 4.3914,-4.853652 1.595119,-1.716393 3.111009,-3.518435 4.85367,-5.084793 1.87951,-1.689388 3.961246,-3.141948 6.009293,-4.622533 2.112684,-1.527322 4.072275,-3.37178 6.471538,-4.391408 1.37673,-0.58507 2.972514,-1.398237 4.39142,-0.924509 1.553631,0.518713 2.345959,2.322859 3.235758,3.698024 1.104954,1.707679 1.960659,3.598038 2.542396,5.547043 0.735471,2.463995 1.029965,5.058844 1.15564,7.627184 0.143279,2.928154 -0.111849,5.872168 -0.462256,8.782818 -0.346675,2.88034 -0.796847,5.76917 -1.617884,8.55169 -0.635672,2.15432 -1.34956,4.33717 -2.542397,6.24042 -1.100884,1.75652 -2.577918,3.28334 -4.16028,4.62252 -1.533521,1.29786 -3.15589,2.67409 -5.084793,3.23578 -2.662901,0.77544 -5.605143,0.56478 -8.320551,0 -1.891728,-0.39345 -3.76166,-1.16333 -5.31592,-2.31125 -1.714061,-1.26596 -3.038442,-3.042 -4.160272,-4.85367 -1.145052,-1.84917 -2.043726,-3.89222 -2.542396,-6.00929 -0.566339,-2.40436 -0.635798,-4.93199 -0.462254,-7.39606 z"
   id="path4550"
   inkscape:connector-curvature="0"
   sodipodi:nodetypes="aaaaaaaaaaaaaaaaaaaa" /><path
   style="fill:#0b1728;stroke:none;stroke-width:0.7713955px;stroke-linecap:butt;stroke-linejoin:miter;stroke-opacity:1"
   d="m 3.4287379,87.874802 c -1.99201,0.408796 -3.79517804,1.507165 -5.545906,2.541687 -2.228886,1.317066 -4.39863,2.804445 -6.240469,4.623853 -1.7210829,1.700118 -3.2871409,3.625674 -4.3918319,5.777938 -0.956863,1.86425 -1.39495,3.96269 -1.848637,6.00845 -0.606293,2.73392 -0.558856,5.58513 -1.155586,8.32113 -0.685578,3.14338 -1.48165,6.29826 -2.773708,9.24468 -0.971108,2.21454 -2.264146,4.29396 -3.698782,6.24049 -1.294408,1.75627 -2.618241,3.58169 -4.390325,4.85436 -3.138911,2.25431 -7.180965,2.88369 -10.632301,4.62235 -2.065438,1.04048 -4.44861,1.76062 -6.009954,3.46676 -1.605497,1.75436 -2.378655,4.17663 -3.004224,6.47099 -1.038564,3.80907 -1.317918,7.84308 -1.155587,11.78788 0.106245,2.58174 0.429368,5.22689 1.387609,7.62656 0.990511,2.48049 2.705207,4.63075 4.390325,6.70302 1.237405,1.52169 2.621063,2.94558 4.161317,4.15981 2.199696,1.73408 4.532319,3.43275 7.164034,4.39183 2.927731,1.06694 6.134586,1.19468 9.244693,1.3876 3.077123,0.19088 6.179328,0.0833 9.246199,-0.23201 3.4274069,-0.35238 6.8753629,-0.83957 10.1697669,-1.84865 2.01202396,-0.61628 3.912945,-1.56857 5.777924,-2.54319 1.440163,-0.75261 4.159821,-2.54169 4.159821,-2.54169 0,0 1.557312,1.72609 2.5416841,2.31118 1.612958,0.95871 3.563932,1.17941 5.316904,1.84863 0.935733,0.35723 1.812717,0.87328 2.773718,1.15558 2.10227,0.61761 4.29392,0.90776 6.470972,1.1556 3.065617,0.34899 6.159908,0.52513 9.244696,0.46254 3.40318,-0.069 6.884931,-0.0312 10.169763,-0.92356 2.79394,-0.75894 5.47167,-2.06029 7.8586,-3.69879 2.021514,-1.38767 3.81385,-3.14644 5.315386,-5.08488 1.35183,-1.74518 2.203129,-3.82711 3.236252,-5.77795 0.645059,-1.21807 1.478754,-2.37097 1.84863,-3.69877 0.518495,-1.86127 0.385401,-3.84733 0.462537,-5.77793 0.07385,-1.84716 0.102294,-3.70011 0,-5.54591 -0.07723,-1.39352 -0.09206,-2.81574 -0.462537,-4.16133 -0.494192,-1.79503 -1.385025,-3.46974 -2.311156,-5.08487 -0.79751,-1.39079 -1.58252,-2.85627 -2.773726,-3.92929 -1.640006,-1.47728 -3.745732,-2.37326 -5.777925,-3.23475 -2.221629,-0.94177 -4.851159,-0.86151 -6.933522,-2.08066 -2.680082,-1.56908 -4.713153,-4.08657 -6.703013,-6.47098 -1.42382,-1.70614 -2.768001,-3.52885 -3.69726,-5.54742 -1.305553,-2.83595 -1.78914,-5.9846 -2.543203,-9.01417 -0.704391,-2.83006 -1.25454,-5.69642 -1.848635,-8.55165 -0.400111,-1.92293 -0.365047,-3.97993 -1.155587,-5.77794 -0.99866,-2.271374 -2.648261,-4.244641 -4.391828,-6.009952 C 23.029229,93.583126 20.780448,92.009306 18.452884,90.648511 16.636266,89.58644 14.72861,88.564093 12.674943,88.105319 9.6660769,87.433174 6.4488289,87.255045 3.4287379,87.874802 Z M -0.03801114,123.46899 H 15.909687 v 15.25315 h 14.099055 v 15.25464 H 15.909687 v 15.25464 H -0.03801114 V 153.97678 H -15.291156 v -15.25464 h 15.25314486 z"
   id="path4552"
   inkscape:connector-curvature="0"
   sodipodi:nodetypes="aaaaaaaaaaaaaaaaaaaaacaaaaaaaaaaaaaaaaaaaaaaaaaaccccccccccccc" /><g
   aria-label="CONVERSOR DE DIVISAS"
   style="font-style:normal;font-variant:normal;font-weight:600;font-stretch:normal;font-size:110.85733032px;line-height:1.25;font-family:'Open Sans';-inkscape-font-specification:'Open Sans, Semi-Bold';font-variant-ligatures:normal;font-variant-caps:normal;font-variant-numeric:normal;font-feature-settings:normal;text-align:start;letter-spacing:0px;word-spacing:0px;writing-mode:lr-tb;text-anchor:start;fill:#00aad4;fill-opacity:1;stroke:none;stroke-width:1.18776357"
   id="text860"><path
     d="m 148.06709,75.023478 h 13.42413 L 133.77689,154.16089 H 120.13624 L 92.530167,75.023478 h 13.315873 l 16.50951,49.203762 q 1.29911,3.51843 2.76061,9.09377 1.4615,5.52121 1.89453,8.22769 0.70369,-4.11384 2.16519,-9.5268 1.46149,-5.41296 2.3817,-8.01117 z"
     style="font-style:normal;font-variant:normal;font-weight:600;font-stretch:normal;font-size:110.85733032px;font-family:'Open Sans';-inkscape-font-specification:'Open Sans, Semi-Bold';font-variant-ligatures:normal;font-variant-caps:normal;font-variant-numeric:normal;font-feature-settings:normal;text-align:start;writing-mode:lr-tb;text-anchor:start;stroke-width:1.18776357"
     id="path864" /><path
     d="M 216.81163,154.16089 H 172.04648 V 75.023478 h 44.76515 v 10.93417 h -31.82818 v 21.543562 h 29.82538 v 10.82591 h -29.82538 v 24.84547 h 31.82818 z"
     style="font-style:normal;font-variant:normal;font-weight:600;font-stretch:normal;font-size:110.85733032px;font-family:'Open Sans';-inkscape-font-specification:'Open Sans, Semi-Bold';font-variant-ligatures:normal;font-variant-caps:normal;font-variant-numeric:normal;font-feature-settings:normal;text-align:start;writing-mode:lr-tb;text-anchor:start;stroke-width:1.18776357"
     id="path866" /><path
     d="M 261.30613,154.16089 H 248.36916 V 86.120037 H 225.09345 V 75.023478 h 59.48839 v 11.096559 h -23.27571 z"
     style="font-style:normal;font-variant:normal;font-weight:600;font-stretch:normal;font-size:110.85733032px;font-family:'Open Sans';-inkscape-font-specification:'Open Sans, Semi-Bold';font-variant-ligatures:normal;font-variant-caps:normal;font-variant-numeric:normal;font-feature-settings:normal;text-align:start;writing-mode:lr-tb;text-anchor:start;stroke-width:1.18776357"
     id="path868" /><path
     d="M 341.52613,154.16089 H 296.76098 V 75.023478 h 44.76515 v 10.93417 h -31.82818 v 21.543562 h 29.82538 v 10.82591 h -29.82538 v 24.84547 h 31.82818 z"
     style="font-style:normal;font-variant:normal;font-weight:600;font-stretch:normal;font-size:110.85733032px;font-family:'Open Sans';-inkscape-font-specification:'Open Sans, Semi-Bold';font-variant-ligatures:normal;font-variant-caps:normal;font-variant-numeric:normal;font-feature-settings:normal;text-align:start;writing-mode:lr-tb;text-anchor:start;stroke-width:1.18776357"
     id="path870" /><path
     d="m 371.62216,111.83158 h 8.9855 q 9.03964,0 13.09936,-3.35604 4.05971,-3.35603 4.05971,-9.959835 0,-6.712065 -4.38449,-9.635061 -4.38449,-2.922996 -13.20761,-2.922996 h -8.55247 z m 0,10.71765 v 31.61166 H 358.68519 V 75.023478 h 22.35551 q 15.31866,0 22.68028,5.737733 7.36162,5.737733 7.36162,17.321458 0,14.777371 -15.37279,21.056401 l 22.35551,35.02182 h -14.72324 l -18.94535,-31.61166 z"
     style="font-style:normal;font-variant:normal;font-weight:600;font-stretch:normal;font-size:110.85733032px;font-family:'Open Sans';-inkscape-font-specification:'Open Sans, Semi-Bold';font-variant-ligatures:normal;font-variant-caps:normal;font-variant-numeric:normal;font-feature-settings:normal;text-align:start;writing-mode:lr-tb;text-anchor:start;stroke-width:1.18776357"
     id="path872" /><path
     d="M 429.48666,154.16089 V 75.023478 h 12.93697 v 79.137412 z"
     style="font-style:normal;font-variant:normal;font-weight:600;font-stretch:normal;font-size:110.85733032px;font-family:'Open Sans';-inkscape-font-specification:'Open Sans, Semi-Bold';font-variant-ligatures:normal;font-variant-caps:normal;font-variant-numeric:normal;font-feature-settings:normal;text-align:start;writing-mode:lr-tb;text-anchor:start;stroke-width:1.18776357"
     id="path874" /><path
     d="M 529.19329,154.16089 H 513.33333 L 474.41418,91.099956 h -0.43304 l 0.27065,3.518421 q 0.75781,10.068093 0.75781,18.404053 v 41.13846 H 463.26349 V 75.023478 h 15.69757 l 38.81089,62.736152 h 0.32478 q -0.10826,-1.24498 -0.43304,-9.03963 -0.32478,-7.84879 -0.32478,-12.23328 V 75.023478 h 11.85438 z"
     style="font-style:normal;font-variant:normal;font-weight:600;font-stretch:normal;font-size:110.85733032px;font-family:'Open Sans';-inkscape-font-specification:'Open Sans, Semi-Bold';font-variant-ligatures:normal;font-variant-caps:normal;font-variant-numeric:normal;font-feature-settings:normal;text-align:start;writing-mode:lr-tb;text-anchor:start;stroke-width:1.18776357"
     id="path876" /><path
     d="m 599.18282,154.16089 -7.90292,-21.9766 h -30.25842 l -7.74053,21.9766 H 539.6403 l 29.60887,-79.462189 h 14.07369 l 29.60886,79.462189 z M 587.86974,121.0336 580.45399,99.490037 q -0.81194,-2.165182 -2.27344,-6.820324 -1.40737,-4.655142 -1.94867,-6.820324 -1.46149,6.657936 -4.27623,14.560851 l -7.1451,20.62336 z"
     style="font-style:normal;font-variant:normal;font-weight:600;font-stretch:normal;font-size:110.85733032px;font-family:'Open Sans';-inkscape-font-specification:'Open Sans, Semi-Bold';font-variant-ligatures:normal;font-variant-caps:normal;font-variant-numeric:normal;font-feature-settings:normal;text-align:start;writing-mode:lr-tb;text-anchor:start;stroke-width:1.18776357"
     id="path878" /><path
     d="m 636.42396,111.83158 h 8.98551 q 9.03963,0 13.09935,-3.35604 4.05972,-3.35603 4.05972,-9.959835 0,-6.712065 -4.3845,-9.635061 -4.38449,-2.922996 -13.20761,-2.922996 h -8.55247 z m 0,10.71765 v 31.61166 H 623.487 V 75.023478 h 22.3555 q 15.31867,0 22.68029,5.737733 7.36162,5.737733 7.36162,17.321458 0,14.777371 -15.3728,21.056401 l 22.35551,35.02182 h -14.72324 l -18.94534,-31.61166 z"
     style="font-style:normal;font-variant:normal;font-weight:600;font-stretch:normal;font-size:110.85733032px;font-family:'Open Sans';-inkscape-font-specification:'Open Sans, Semi-Bold';font-variant-ligatures:normal;font-variant-caps:normal;font-variant-numeric:normal;font-feature-settings:normal;text-align:start;writing-mode:lr-tb;text-anchor:start;stroke-width:1.18776357"
     id="path880" /><path
     d="M 694.28845,154.16089 V 75.023478 h 12.93696 v 79.137412 z"
     style="font-style:normal;font-variant:normal;font-weight:600;font-stretch:normal;font-size:110.85733032px;font-family:'Open Sans';-inkscape-font-specification:'Open Sans, Semi-Bold';font-variant-ligatures:normal;font-variant-caps:normal;font-variant-numeric:normal;font-feature-settings:normal;text-align:start;writing-mode:lr-tb;text-anchor:start;stroke-width:1.18776357"
     id="path882" /><path
     d="m 777.16081,154.16089 -7.90291,-21.9766 h -30.25842 l -7.74053,21.9766 H 717.6183 l 29.60887,-79.462189 h 14.07368 l 29.60887,79.462189 z M 765.84774,121.0336 758.43199,99.490037 q -0.81195,-2.165182 -2.27344,-6.820324 -1.40737,-4.655142 -1.94867,-6.820324 -1.4615,6.657936 -4.27623,14.560851 l -7.14511,20.62336 z"
     style="font-style:normal;font-variant:normal;font-weight:600;font-stretch:normal;font-size:110.85733032px;font-family:'Open Sans';-inkscape-font-specification:'Open Sans, Semi-Bold';font-variant-ligatures:normal;font-variant-caps:normal;font-variant-numeric:normal;font-feature-settings:normal;text-align:start;writing-mode:lr-tb;text-anchor:start;stroke-width:1.18776357"
     id="path884" /></g></g>
</svg>