<?xml version="1.0" encoding="UTF-8" standalone="no"?>
<!-- Generator: Adobe Illustrator 17.0.0, SVG Export Plug-In . SVG Version: 6.00 Build 0)  -->

<svg
   xmlns:dc="http://purl.org/dc/elements/1.1/"
   xmlns:cc="http://creativecommons.org/ns#"
   xmlns:rdf="http://www.w3.org/1999/02/22-rdf-syntax-ns#"
   xmlns:svg="http://www.w3.org/2000/svg"
   xmlns="http://www.w3.org/2000/svg"
   xmlns:sodipodi="http://sodipodi.sourceforge.net/DTD/sodipodi-0.dtd"
   xmlns:inkscape="http://www.inkscape.org/namespaces/inkscape"
   version="1.1"
   id="Warstwa_1"
   x="0px"
   y="0px"
   width="173.2px"
   height="200px"
   viewBox="0 0 173.2 200"
   enable-background="new 0 0 173.2 200"
   xml:space="preserve"
   sodipodi:docname="sygnet.svg"
   inkscape:version="0.92.4 (5da689c313, 2019-01-14)"><metadata
   id="metadata23"><rdf:RDF><cc:Work
       rdf:about=""><dc:format>image/svg+xml</dc:format><dc:type
         rdf:resource="http://purl.org/dc/dcmitype/StillImage" /></cc:Work></rdf:RDF></metadata><defs
   id="defs21" /><sodipodi:namedview
   pagecolor="#ffffff"
   bordercolor="#666666"
   borderopacity="1"
   objecttolerance="10"
   gridtolerance="10"
   guidetolerance="10"
   inkscape:pageopacity="0"
   inkscape:pageshadow="2"
   inkscape:window-width="1366"
   inkscape:window-height="705"
   id="namedview19"
   showgrid="false"
   inkscape:zoom="1.03"
   inkscape:cx="24.629703"
   inkscape:cy="88.021742"
   inkscape:window-x="-8"
   inkscape:window-y="-8"
   inkscape:window-maximized="1"
   inkscape:current-layer="Warstwa_1" />








<path
   style="fill:#0b1728;stroke:none;stroke-width:0.87641245px;stroke-linecap:butt;stroke-linejoin:miter;stroke-opacity:1"
   d="m 22.708777,133.30812 c 2.727192,-0.28012 5.510436,-0.98064 7.877761,-2.36333 2.726226,-1.59231 5.141319,-3.89555 6.827392,-6.5648 1.478214,-2.34019 2.128019,-5.15495 2.62592,-7.87776 0.393941,-2.15429 0.415632,-4.38014 0.262593,-6.5648 -0.136773,-1.95246 -0.360632,-3.94534 -1.050368,-5.77702 -0.899307,-2.38822 -2.346621,-4.570536 -3.938881,-6.564803 -3.553692,-4.450905 -7.956254,-8.182625 -12.341825,-11.816642 -2.898922,-2.402133 -5.743749,-5.05074 -9.190721,-6.5648 -1.556046,-0.683484 -3.398595,-1.648912 -4.989248,-1.050369 -2.0480698,0.770665 -2.7724379,3.400376 -3.9388806,5.251841 -1.2104053,1.921246 -2.430303,3.886312 -3.1511041,6.039614 -0.8450438,2.524463 -1.1361889,5.221499 -1.3129604,7.877765 -0.1802719,2.708864 -0.030298,5.441334 0.2625924,8.140344 0.4130269,3.80606 0.9048161,7.65464 2.1007361,11.29146 1.0027806,3.04948 2.3802248,6.02207 4.2014721,8.66554 1.1593275,1.68272 2.5736255,3.22888 4.2014725,4.46407 1.653039,1.2543 3.52287,2.30583 5.514432,2.8885 1.9395,0.56745 4.029391,0.73168 6.039617,0.52519 z"
   id="path4544"
   inkscape:connector-curvature="0"
   sodipodi:nodetypes="aaaaaaaaaaaaaaaaaaa" /><path
   style="fill:#0b1728;stroke:none;stroke-width:0.87641245px;stroke-linecap:butt;stroke-linejoin:miter;stroke-opacity:1"
   d="m 52.119083,77.901204 c 2.35955,0.159714 4.776384,0.227545 7.089985,-0.262592 2.305664,-0.488454 4.625867,-1.286066 6.564801,-2.62592 2.344483,-1.620098 4.086567,-4.00794 5.777025,-6.302209 1.442646,-1.957943 2.813325,-4.02843 3.676288,-6.302208 0.791845,-2.086393 0.992657,-4.356303 1.312959,-6.5648 0.555065,-3.82719 0.959093,-7.687896 1.050368,-11.55405 0.09512,-4.029092 -0.339471,-8.053299 -0.525184,-12.079233 -0.165566,-3.589208 -0.07533,-7.20152 -0.525184,-10.766273 C 76.103839,17.986564 75.794066,14.413525 74.439405,11.202831 73.288025,8.4739342 71.969657,5.4073906 69.450157,3.850254 68.323402,3.1538815 66.834721,3.270244 65.511277,3.32507 62.64652,3.4437476 59.802302,4.1816626 57.108332,5.1632142 53.392857,6.5169526 49.731044,8.2562781 46.604651,10.677647 c -2.988558,2.314615 -5.589587,5.211403 -7.615169,8.402944 -2.439011,3.842947 -3.914247,8.253801 -5.25184,12.604417 -1.155244,3.757512 -1.967428,7.642943 -2.363329,11.554049 -0.361424,3.570512 -0.561534,7.221719 0,10.766273 0.576045,3.636148 1.833625,7.178508 3.413697,10.503681 1.385931,2.916618 3.008596,5.81757 5.25184,8.140353 1.703657,1.764064 3.771347,3.269098 6.039617,4.201472 1.889984,0.776879 4.000858,0.912367 6.039616,1.050368 z"
   id="path4546"
   inkscape:connector-curvature="0"
   sodipodi:nodetypes="aaaaaaaaaaaaaaaaaaaaaa" /><path
   style="fill:#0b1728;stroke:none;stroke-width:0.87641245px;stroke-linecap:butt;stroke-linejoin:miter;stroke-opacity:1"
   d="m 115.92895,77.901204 c 2.70561,0.223923 5.50851,0.403674 8.14034,-0.262592 2.27687,-0.576403 4.42714,-1.73673 6.30222,-3.151104 2.27513,-1.716132 4.27641,-3.87951 5.77702,-6.302209 1.92592,-3.109344 2.96869,-6.714629 3.93888,-10.241088 0.82451,-2.996914 1.34804,-6.090796 1.57556,-9.190721 0.27558,-3.754738 0.39472,-7.584447 -0.2626,-11.291457 -0.80708,-4.551579 -2.4207,-8.983165 -4.46406,-13.129601 -1.81358,-3.680152 -4.0367,-7.23366 -6.82739,-10.241089 -3.09657,-3.337058 -6.63895,-6.4820348 -10.76628,-8.4029447 -4.21787,-1.9630562 -9.15969,-4.0877576 -13.65478,-2.8885123 -2.15619,0.5752484 -3.65877,2.6724564 -4.98925,4.4640644 -1.72766,2.3264384 -2.878286,5.0920256 -3.67629,7.8777606 -0.99561,3.475555 -1.054095,7.160207 -1.312961,10.766273 -0.570468,7.946765 -0.972495,15.941226 -0.525184,23.895874 0.183482,3.262918 0.385495,6.5822 1.312961,9.715905 0.988964,3.341498 2.501754,6.573552 4.464064,9.453313 1.15067,1.688652 2.58071,3.21959 4.20147,4.464064 2.05012,1.574148 4.39553,2.80051 6.82739,3.676288 1.25976,0.453675 2.60449,0.677338 3.93889,0.787776 z"
   id="path4548"
   inkscape:connector-curvature="0"
   sodipodi:nodetypes="aaaaaaaaaaaaaaaaaaaa" /><path
   style="fill:#0b1728;stroke:none;stroke-width:0.87641245px;stroke-linecap:butt;stroke-linejoin:miter;stroke-opacity:1"
   d="m 132.99743,109.67484 c 0.21347,-3.03095 0.46412,-6.21809 1.83814,-8.92813 1.12096,-2.210897 3.30177,-3.698651 4.98925,-5.514428 1.81227,-1.950053 3.53454,-3.997423 5.51443,-5.777031 2.1354,-1.919373 4.50054,-3.56969 6.8274,-5.251838 2.40031,-1.735245 4.62667,-3.830812 7.35257,-4.989248 1.56415,-0.664723 3.37719,-1.588591 4.98925,-1.050369 1.76515,0.589333 2.66535,2.639085 3.67629,4.201473 1.25537,1.940154 2.22757,4.08787 2.88851,6.30221 0.83559,2.799437 1.17017,5.747548 1.31296,8.665537 0.16279,3.326794 -0.12717,6.671594 -0.52518,9.978494 -0.39387,3.27247 -0.90533,6.55457 -1.83815,9.7159 -0.72221,2.44761 -1.53329,4.92764 -2.88851,7.08999 -1.25075,1.99565 -2.92887,3.73033 -4.72665,5.25184 -1.7423,1.47454 -3.58554,3.03812 -5.77703,3.67629 -3.02544,0.881 -6.36823,0.64165 -9.45331,0 -2.14926,-0.44702 -4.27377,-1.32171 -6.03962,-2.62592 -1.94741,-1.43831 -3.4521,-3.45612 -4.72665,-5.51443 -1.30094,-2.10092 -2.32196,-4.42212 -2.88852,-6.82739 -0.64343,-2.73169 -0.72235,-5.60343 -0.52518,-8.40295 z"
   id="path4550"
   inkscape:connector-curvature="0"
   sodipodi:nodetypes="aaaaaaaaaaaaaaaaaaaa" /><path
   style="fill:#0b1728;stroke:none;stroke-width:0.87641245px;stroke-linecap:butt;stroke-linejoin:miter;stroke-opacity:1"
   d="m 81.266009,88.930158 c -2.263213,0.464446 -4.311862,1.712352 -6.300926,2.887709 -2.532326,1.496369 -4.997455,3.186241 -7.09004,5.253338 -1.955389,1.93157 -3.734649,4.119275 -4.989731,6.564535 -1.08713,2.11804 -1.584858,4.50216 -2.100308,6.82643 -0.688834,3.10611 -0.63494,6.34548 -1.312907,9.45396 -0.778911,3.57132 -1.683361,7.1557 -3.151319,10.50325 -1.103312,2.51601 -2.572384,4.87852 -4.202329,7.09005 -1.470628,1.99537 -2.974686,4.06929 -4.988019,5.51523 -3.566239,2.56121 -8.158575,3.27627 -12.079771,5.25163 -2.346625,1.18214 -5.05424,2.00032 -6.828143,3.93872 -1.824067,1.99321 -2.702482,4.74522 -3.413216,7.35194 -1.179953,4.32764 -1.497339,8.91084 -1.312907,13.39268 0.120706,2.93321 0.487821,5.93847 1.576516,8.66483 1.125358,2.81818 3.073491,5.26117 4.988019,7.61555 1.405864,1.72886 2.977892,3.34659 4.727834,4.72613 2.499162,1.97016 5.149345,3.90009 8.139339,4.98973 3.326309,1.21219 6.969742,1.35733 10.503255,1.57651 3.496039,0.21685 7.020575,0.0946 10.504967,-0.26361 3.89401,-0.40035 7.811372,-0.95386 11.554264,-2.10031 2.285938,-0.70018 4.445659,-1.78212 6.564535,-2.88942 1.636214,-0.85507 4.726123,-2.88771 4.726123,-2.88771 0,0 1.769333,1.96108 2.88771,2.62582 1.83255,1.08922 4.04912,1.33998 6.040742,2.1003 1.063122,0.40586 2.059499,0.99216 3.151323,1.31291 2.38848,0.70168 4.87849,1.03132 7.35193,1.3129 3.48297,0.39651 6.99851,0.59662 10.50326,0.52551 3.86648,-0.0784 7.82223,-0.0355 11.55426,-1.04929 3.1743,-0.86226 6.21658,-2.34077 8.92846,-4.20233 2.29672,-1.57659 4.33307,-3.57479 6.03902,-5.77714 1.53586,-1.98277 2.50307,-4.34812 3.67683,-6.56454 0.73288,-1.3839 1.68007,-2.69377 2.10031,-4.20232 0.58908,-2.11466 0.43785,-4.37111 0.5255,-6.56454 0.0839,-2.09863 0.11619,-4.20383 0,-6.30093 -0.0877,-1.58322 -0.10462,-3.19906 -0.5255,-4.72783 -0.56147,-2.03941 -1.57359,-3.94211 -2.62581,-5.77713 -0.90608,-1.58013 -1.79796,-3.24513 -3.15133,-4.46422 -1.86328,-1.6784 -4.25567,-2.69635 -6.56453,-3.67512 -2.52407,-1.06999 -5.51159,-0.9788 -7.87744,-2.36392 -3.04495,-1.7827 -5.3548,-4.64291 -7.61555,-7.35193 -1.61766,-1.93842 -3.14484,-4.00926 -4.20061,-6.30264 -1.48328,-3.22203 -2.03271,-6.79932 -2.88943,-10.24135 -0.80029,-3.21533 -1.42533,-6.47192 -2.1003,-9.71586 -0.45459,-2.18472 -0.41475,-4.52175 -1.31291,-6.56454 -1.13462,-2.58058 -3.00879,-4.822494 -4.98973,-6.828138 -2.15257,-2.179401 -4.7075,-3.967475 -7.35194,-5.513528 C 96.271594,90.87482 94.104232,89.713285 91.770975,89.192056 88.35249,88.428403 84.697247,88.226022 81.266009,88.930158 Z m -3.938721,40.439932 h 18.1188 v 17.32969 h 16.018492 v 17.33139 H 95.446088 v 17.3314 h -18.1188 v -17.3314 H 59.997602 v -17.33139 h 17.329686 z"
   id="path4552"
   inkscape:connector-curvature="0"
   sodipodi:nodetypes="aaaaaaaaaaaaaaaaaaaaacaaaaaaaaaaaaaaaaaaaaaaaaaaccccccccccccc" /></svg>